<!DOCTYPE svg PUBLIC "-//W3C//DTD SVG 20010904//EN" "http://www.w3.org/TR/2001/REC-SVG-20010904/DTD/svg10.dtd">
<svg version="1.0" xmlns="http://www.w3.org/2000/svg" width="448px" height="600px" viewBox="0 0 4480 6000" preserveAspectRatio="xMidYMid meet">
<style type="text/css"><![CDATA[
.title {
  font-weight: bold;
  font-size: 800px;
  font-family: Futura, sans-serif;
  fill: #fff;
}
]]></style>
<g id="layer101" fill="#333">
 <path d="M0 3000 l0 -3000 2240 0 2240 0 0 3000 0 3000 -2240 0 -2240 0 0 -3000z"/>
</g>
<g id="layer102" fill="#ffffff" stroke="none">
 <path d="M0 3000 l0 -3000 2240 0 2240 0 0 3000 0 3000 -2240 0 -2240 0 0 -3000z m2828 2978 c-3 -7 -27 -26 -54 -44 -84 -54 -114 -88 -114 -126 0 -57 -41 -79 -62 -33 -14 31 -29 32 -54 4 -31 -35 -71 -50 -109 -43 -50 9 -79 -27 -102 -124 -14 -63 -17 -125 -18 -337 0 -284 7 -333 65 -460 60 -131 127 -188 260 -224 70 -19 317 -54 330 -46 3 2 75 8 160 14 364 27 428 33 485 47 33 8 69 23 80 34 21 20 264 120 291 120 30 0 8 -25 -47 -52 -29 -15 -83 -39 -119 -53 -69 -28 -100 -50 -100 -71 0 -16 64 -71 104 -91 31 -14 42 -12 244 40 117 30 212 51 212 47 0 -19 -38 -34 -162 -65 -73 -18 -141 -36 -150 -40 -36 -15 -18 -47 87 -147 119 -114 246 -256 335 -374 98 -129 105 -189 8 -67 -97 121 -297 313 -327 313 -25 0 -11 -38 100 -276 16 -34 29 -65 29 -69 0 -18 -23 13 -61 83 -23 42 -47 84 -54 92 -7 8 -31 51 -55 95 -78 148 -107 178 -228 238 -59 29 -140 63 -179 77 -100 34 -108 23 -52 -72 113 -189 120 -261 10 -87 -86 135 -113 153 -238 157 -95 4 -251 -12 -265 -26 -10 -10 81 -147 231 -352 117 -158 160 -196 316 -272 50 -24 117 -62 150 -84 61 -41 143 -77 250 -110 l60 -19 -62 -3 c-35 -2 -63 -7 -63 -11 0 -9 96 -145 149 -210 39 -49 98 -105 142 -136 16 -11 35 -36 43 -55 8 -19 48 -77 90 -128 77 -95 92 -121 57 -102 -24 12 -72 69 -149 175 -60 82 -98 112 -128 101 -23 -9 -13 -77 25 -176 15 -41 31 -88 35 -105 6 -28 5 -28 -14 8 -11 20 -41 92 -66 160 -78 209 -119 282 -204 367 -42 41 -102 90 -135 109 -33 19 -80 47 -104 63 -44 28 -71 35 -71 20 0 -5 22 -98 49 -208 52 -211 66 -276 77 -363 12 -97 38 -159 187 -442 42 -81 77 -150 77 -155 0 -12 -16 7 -38 46 -94 167 -191 320 -205 320 -26 0 14 -232 103 -605 48 -204 96 -475 79 -458 -4 4 -21 81 -39 171 -17 90 -46 224 -65 299 -32 125 -47 164 -60 152 -13 -14 -25 -207 -19 -316 5 -83 4 -123 -3 -123 -7 0 -13 147 -16 442 -5 458 -10 522 -57 769 -22 117 -77 312 -107 380 -18 40 -79 134 -108 165 -34 37 -87 98 -216 249 -200 232 -263 300 -275 292 -13 -8 -1 -118 22 -205 17 -66 44 -97 93 -108 54 -12 152 -47 158 -57 3 -5 -3 -7 -13 -4 -50 14 -145 18 -159 7 -12 -10 -12 -17 6 -52 12 -23 35 -62 53 -87 43 -62 89 -140 104 -176 l12 -30 -22 27 c-13 15 -38 47 -57 73 -19 25 -39 44 -45 42 -12 -4 -12 -13 -3 -142 11 -136 -10 -70 -27 84 -11 106 -19 139 -49 207 -19 45 -58 160 -86 255 -60 211 -63 219 -92 245 -32 28 -69 41 -159 54 -112 17 -222 56 -250 90 -17 19 -156 120 -166 120 -25 0 -23 -17 7 -71 112 -203 251 -546 293 -722 21 -91 72 -219 161 -402 70 -145 76 -154 159 -232 47 -45 124 -107 171 -139 76 -50 90 -56 122 -51 20 4 53 18 74 32 46 30 49 30 49 6 0 -26 -44 -59 -89 -66 -86 -14 -91 -42 -17 -89 31 -20 81 -52 111 -71 60 -38 70 -56 28 -49 -56 10 -190 102 -272 184 -55 56 -176 141 -218 154 -12 4 -24 3 -27 -2 -10 -16 29 -111 115 -282 162 -323 346 -599 501 -752 59 -59 108 -110 108 -113 0 -12 -20 -2 -70 35 -29 22 -59 40 -66 40 -13 0 -5 -53 26 -166 10 -39 26 -104 34 -144 10 -47 33 -106 67 -169 70 -129 101 -192 96 -197 -2 -2 -30 36 -63 84 -82 120 -90 117 -85 -33 2 -98 1 -118 -10 -108 -9 9 -15 70 -21 205 -9 227 -26 308 -94 448 -88 185 -231 400 -264 400 -35 0 26 -464 91 -693 17 -60 29 -110 27 -113 -3 -2 -17 18 -32 46 -15 27 -30 50 -33 50 -9 0 3 -110 57 -520 48 -362 60 -492 40 -444 -4 11 -11 56 -15 100 -16 180 -66 457 -85 469 -14 9 -18 -18 -24 -161 -8 -177 -16 -236 -26 -209 -4 11 -3 101 2 200 15 274 4 735 -22 935 -51 407 -76 501 -182 713 -77 154 -172 378 -238 565 -24 67 -46 122 -50 122 -9 0 -9 -164 0 -325 5 -82 23 -230 40 -329 17 -98 30 -186 28 -194 -2 -8 -18 46 -36 121 -30 120 -52 171 -67 155 -3 -2 -8 -34 -11 -69 -4 -35 -13 -75 -20 -89 -13 -23 -14 -20 -8 35 3 33 10 92 15 130 5 39 12 183 15 320 10 376 -15 505 -166 856 -93 217 -151 312 -179 295 -53 -33 -37 -717 25 -1066 22 -120 60 -249 106 -360 45 -107 266 -551 310 -621 77 -126 153 -371 173 -559 8 -74 26 -218 40 -320 14 -102 34 -309 45 -460 11 -151 24 -308 30 -348 5 -40 10 -83 10 -95 -1 -21 -1 -22 -15 -3 -8 11 -15 28 -15 38 0 27 -27 33 -50 13 -19 -18 -20 -17 -20 14 0 18 8 46 18 64 15 28 17 60 16 242 -1 219 -10 325 -49 585 -13 85 -26 184 -30 220 -14 138 -72 333 -142 477 -19 39 -41 74 -49 77 -51 20 -36 -171 22 -282 26 -49 30 -62 16 -57 -34 14 -46 10 -53 -20 -4 -16 -8 -192 -9 -390 -2 -306 -8 -429 -21 -405 -1 3 -5 160 -8 350 l-6 345 -27 49 c-15 26 -44 100 -63 163 -23 72 -45 122 -58 135 -39 35 -184 138 -194 138 -16 0 -21 -53 -34 -310 l-11 -235 30 -60 c53 -105 134 -278 163 -349 44 -105 34 -123 -14 -26 -57 113 -155 286 -171 299 -10 9 -15 -25 -26 -162 -16 -219 -12 -316 16 -354 18 -24 166 -121 186 -123 4 0 38 -20 75 -43 66 -42 150 -123 139 -134 -2 -3 -37 22 -76 56 -74 64 -77 66 -99 52 -19 -12 -7 -59 46 -169 44 -93 50 -130 13 -82 -21 27 -22 30 -70 158 -44 114 -113 178 -212 197 -31 6 -38 4 -49 -16 -7 -13 -13 -62 -13 -109 -1 -75 3 -92 30 -150 24 -52 143 -216 174 -240 15 -11 131 -163 141 -183 5 -12 -8 -2 -30 23 -34 39 -41 43 -47 27 -4 -11 -4 -55 -1 -99 4 -45 5 -79 2 -76 -3 2 -14 48 -25 101 -25 126 -51 179 -112 239 -91 88 -96 67 -39 -157 21 -82 37 -152 36 -153 -2 -2 -13 14 -25 37 -32 63 -46 54 -64 -37 -10 -48 -11 -31 -11 129 0 168 -3 194 -28 291 -15 59 -27 123 -27 141 0 18 -6 41 -13 51 -12 16 -15 13 -35 -31 -12 -26 -24 -69 -28 -94 -4 -34 -10 -46 -22 -45 -22 1 -46 -51 -67 -146 -9 -43 -19 -78 -22 -78 -15 0 9 146 37 230 l32 95 -6 180 c-8 235 -48 467 -76 439 -10 -10 -40 -143 -40 -179 0 -13 -5 -36 -12 -52 l-11 -28 -7 30 c-4 17 -8 48 -9 70 -2 55 -17 79 -26 39 -26 -112 -54 -178 -70 -162 -16 16 30 138 120 319 61 121 63 65 -11 435 -49 247 -68 316 -88 333 -12 10 -17 8 -26 -8 -29 -55 -65 -612 -55 -856 13 -341 39 -528 110 -800 40 -152 69 -322 58 -335 -10 -11 -22 29 -32 111 -17 130 -78 329 -101 329 -17 0 -37 -52 -76 -193 -20 -75 -39 -136 -40 -134 -8 7 28 213 51 297 26 94 27 98 21 330 -6 226 -19 445 -32 503 -4 21 -9 25 -19 17 -11 -9 -73 -130 -141 -275 -17 -35 -19 -37 -22 -17 -2 13 6 46 17 72 22 50 27 80 13 80 -12 0 -57 -45 -107 -109 -27 -34 -50 -59 -53 -57 -11 12 46 101 132 203 167 200 169 205 186 553 10 224 30 1014 30 1229 l0 124 -21 -19 c-47 -41 -114 -169 -236 -449 -95 -216 -110 -259 -128 -353 -20 -103 -42 -349 -50 -552 -18 -480 -72 -1309 -86 -1325 -6 -5 -9 -2 -9 8 0 20 -16 23 -23 5 -3 -7 -6 16 -6 52 -1 83 23 302 50 450 26 149 35 265 21 274 -18 11 -39 -33 -77 -164 -94 -322 -166 -541 -172 -524 -2 5 17 81 42 168 25 87 44 160 42 162 -2 2 -23 -17 -47 -41 -24 -25 -50 -45 -58 -45 -18 0 48 124 91 171 18 20 39 51 46 70 8 19 19 48 26 64 18 42 55 159 72 230 14 59 32 505 20 505 -3 0 -25 -38 -48 -85 -24 -46 -45 -83 -47 -80 -3 2 17 72 42 155 67 215 91 352 67 389 -14 23 -49 3 -90 -52 -88 -116 -162 -309 -181 -467 -7 -52 -29 -179 -51 -282 -21 -103 -45 -247 -53 -320 -15 -136 -37 -232 -43 -192 -2 11 0 63 6 115 9 98 7 117 -13 85 -41 -70 -109 -166 -114 -162 -8 9 65 150 104 202 26 34 42 71 59 140 26 102 56 285 48 297 -8 13 -21 -2 -100 -115 -42 -62 -79 -106 -81 -100 -2 7 23 58 56 115 33 56 68 118 79 137 37 67 82 185 85 225 l3 40 -52 3 c-54 3 -99 -12 -156 -51 -65 -44 -172 -247 -223 -420 -16 -54 -30 -93 -32 -88 -4 11 13 129 24 169 10 37 -11 26 -72 -38 -31 -33 -59 -58 -62 -55 -7 6 92 140 160 216 31 35 82 100 113 143 72 100 112 136 203 182 40 21 75 41 78 46 11 17 -24 53 -87 91 -73 43 -89 44 -161 17 -65 -25 -65 -25 -44 -1 22 25 99 61 128 61 12 0 39 -12 60 -27 50 -34 110 -35 161 -4 40 25 224 243 269 318 35 60 103 231 95 239 -3 3 -45 1 -94 -5 -128 -16 -213 -15 -213 3 0 14 33 28 99 41 l34 7 -29 23 c-64 50 -98 84 -92 90 7 7 13 5 134 -59 97 -50 157 -52 194 -8 14 18 62 105 107 194 44 90 100 192 125 228 24 36 54 83 66 105 45 82 102 255 102 307 0 24 -4 28 -27 28 -77 0 -344 -226 -438 -370 -12 -19 -33 -44 -45 -55 l-23 -20 18 35 c10 19 51 90 92 158 41 67 73 129 69 137 -3 8 -27 25 -53 39 -27 13 -59 33 -73 45 -35 29 -9 27 68 -4 34 -14 75 -25 91 -25 36 0 186 75 256 128 71 54 101 109 145 272 21 78 42 145 46 148 6 7 -1 -70 -13 -129 -11 -54 15 -30 36 34 28 86 34 128 23 157 -6 17 -5 52 4 105 20 125 18 162 -10 180 -28 18 -47 12 -136 -45 -160 -102 -310 -252 -434 -434 -99 -145 -145 -269 -205 -556 -47 -223 -52 -216 -11 18 32 186 37 252 19 252 -18 0 -144 -133 -173 -183 -28 -47 -86 -190 -132 -324 -93 -273 -201 -497 -276 -576 -107 -112 -164 -231 -180 -379 -6 -54 -15 -98 -20 -98 -13 0 -8 170 7 235 8 33 15 64 15 69 0 8 -52 6 -190 -9 -50 -6 -53 -5 -37 8 10 9 51 23 90 32 124 30 170 52 228 107 59 57 154 194 193 279 93 204 203 540 219 672 6 48 -12 49 -74 5 -82 -60 -300 -260 -339 -312 -67 -88 -134 -215 -189 -356 -69 -177 -71 -183 -75 -179 -2 2 0 27 4 54 12 77 3 81 -90 36 -33 -16 -60 -27 -60 -25 0 10 37 42 107 93 81 58 153 154 153 201 0 49 -89 97 -200 108 -36 4 -65 12 -65 17 0 21 89 16 171 -9 45 -14 89 -26 99 -26 16 0 289 267 327 320 40 56 21 78 -88 95 -122 20 -223 45 -259 64 l-30 16 38 3 c21 2 82 -7 135 -20 71 -16 125 -22 202 -22 120 1 161 11 301 78 80 37 106 56 154 108 31 35 62 74 68 87 16 34 -9 48 -97 56 -121 12 -131 32 -20 41 38 3 84 11 103 16 37 11 114 85 163 156 16 23 33 40 37 38 4 -3 8 0 8 7 0 7 17 39 37 72 32 53 35 61 21 74 -20 20 -135 26 -222 12 -150 -25 -232 -90 -359 -283 -121 -185 -138 -209 -148 -215 -10 -7 26 62 136 257 42 74 78 144 80 155 13 83 -281 -70 -450 -235 -35 -34 -66 -60 -69 -57 -2 3 16 37 42 77 58 89 57 107 -4 79 -60 -26 -290 -182 -358 -241 -50 -44 -73 -57 -73 -42 0 4 34 42 76 85 51 52 75 83 71 94 -4 8 -28 28 -54 45 -58 36 -94 65 -73 58 142 -45 182 -52 234 -41 61 13 126 41 215 95 34 21 65 38 68 38 16 0 63 44 63 60 0 22 -45 41 -182 75 -138 34 -248 74 -248 90 0 10 10 10 48 -2 158 -50 279 -71 311 -53 27 14 26 41 -4 115 -14 33 -25 61 -25 63 0 1 11 2 25 2 32 0 49 -27 76 -124 26 -96 37 -116 65 -116 12 0 95 16 184 35 216 46 249 68 163 110 -22 11 -69 45 -104 76 -72 62 -128 99 -153 99 -51 0 -196 106 -196 143 0 25 13 21 61 -19 46 -39 130 -83 194 -104 54 -18 80 -35 145 -95 35 -33 76 -60 113 -73 78 -29 228 -45 390 -40 115 3 138 7 177 27 145 76 329 248 378 351 45 97 54 154 59 387 9 361 -19 518 -101 557 -38 18 -88 21 -116 6 -19 -10 -40 -59 -40 -94 0 -31 -20 -49 -37 -35 -8 7 -13 34 -13 73 0 52 -4 66 -22 83 -33 29 -56 39 -112 48 l-49 7 21 21 c20 20 25 20 64 8 153 -46 184 -52 244 -47 71 7 87 -4 128 -94 36 -82 49 -190 49 -425 0 -279 -21 -444 -73 -584 -23 -63 -15 -54 -105 -114 -38 -26 -92 -67 -119 -90 l-49 -44 89 1 c102 1 97 7 111 -124 l8 -75 47 95 c49 101 74 170 84 234 12 80 25 15 34 -170 11 -212 27 -405 36 -428 3 -9 9 -16 14 -16 11 0 20 143 20 320 1 174 15 459 24 468 4 3 20 -4 36 -16 42 -31 64 -29 56 4 -4 15 -18 41 -30 58 -26 35 -56 142 -56 201 0 21 5 53 11 70 9 25 9 38 -4 66 -20 43 -38 141 -28 152 4 4 14 -12 22 -35 13 -41 14 -34 20 152 7 222 21 284 56 249 13 -13 34 -3 106 52 29 21 77 48 107 61 30 12 84 37 120 57 65 35 167 80 183 81 5 0 7 -5 5 -12z m-1731 -2715 c-4 -3 -7 0 -7 7 0 7 3 10 7 7 3 -4 3 -10 0 -14z" stroke="none" stroke-width="0"/>
 <path d="M3546 4548 c-23 -32 -20 -47 10 -54 17 -4 31 -1 41 9 15 14 15 18 -1 41 -20 32 -30 32 -50 4z" />
 <path d="M3038 4506 c-6 -14 -7 -33 -4 -43 7 -16 10 -15 32 10 13 15 24 35 24 43 0 24 -39 16 -52 -10z" />
 <path d="M3110 4516 c0 -8 4 -18 10 -21 13 -8 52 14 45 26 -10 15 -55 11 -55 -5z" />
 <path d="M3197 4524 c-4 -4 -2 -13 3 -20 13 -14 52 -6 47 10 -4 13 -40 20 -50 10z" />
 <path d="M2601 4492 c-7 -6 -11 -14 -7 -20 8 -14 92 -41 136 -44 28 -3 36 1 38 17 2 12 -6 25 -19 34 -27 16 -129 25 -148 13z" />
 <path d="M1583 4441 c-10 -10 -39 -41 -64 -67 -50 -54 -125 -171 -115 -182 15 -14 226 224 226 256 0 18 -28 14 -47 -7z" />
 <path d="M2800 4446 c0 -19 14 -28 34 -20 25 10 19 34 -9 34 -15 0 -25 -6 -25 -14z" />
 <path d="M2927 4453 c-4 -3 -7 -18 -7 -31 0 -18 20 -45 68 -92 37 -37 105 -109 150 -159 85 -92 109 -110 96 -69 -16 52 -173 257 -216 283 -16 9 -28 24 -28 34 0 31 -43 55 -63 34z" />
 <path d="M2276 4418 c10 -34 109 -225 146 -283 41 -64 51 -38 15 38 -14 29 -31 70 -38 92 -14 47 -40 95 -76 142 -30 39 -58 45 -47 11z" />
 <path d="M2073 4418 c-30 -36 -185 -572 -242 -837 -57 -263 -65 -361 -66 -756 0 -277 3 -369 13 -398 18 -51 36 -42 39 19 10 201 63 355 231 673 l102 192 0 257 c0 321 -34 804 -59 850 -6 11 -9 11 -18 0z" />
 <path d="M1314 4105 c-60 -78 -80 -125 -55 -125 23 0 95 119 89 148 -2 12 -11 5 -34 -23z" />
 <path d="M2170 3935 c0 -25 5 -45 10 -45 6 0 10 20 10 45 0 25 -4 45 -10 45 -5 0 -10 -20 -10 -45z" />
 <path d="M1823 3895 c-21 -41 -37 -105 -48 -185 -12 -87 -46 -256 -62 -305 -9 -27 -15 -50 -13 -50 6 0 -53 -89 -96 -146 -46 -60 -98 -163 -91 -182 2 -6 32 29 68 77 35 49 76 100 91 114 15 13 34 42 43 64 33 84 142 611 132 641 -2 7 -13 -6 -24 -28z" />
 <path d="M2175 3787 c-9 -48 -2 -573 8 -583 4 -4 12 -3 18 3 15 15 8 571 -8 598 -10 18 -12 16 -18 -18z" />
 <path d="M2609 3658 c-3 -36 7 -76 56 -213 67 -189 124 -325 136 -325 22 0 -5 125 -45 214 -18 40 -36 88 -40 108 -3 19 -18 48 -31 64 -16 19 -25 41 -25 64 0 46 -48 127 -51 88z" />
 <path d="M2102 3133 c-121 -155 -206 -349 -231 -528 -16 -112 -13 -165 15 -310 27 -142 43 -332 27 -322 -5 3 -10 27 -12 54 -5 120 -38 260 -67 283 -12 11 -14 5 -14 -36 0 -47 43 -310 96 -587 13 -70 24 -136 24 -147 0 -37 15 -20 45 48 16 37 47 108 70 157 108 231 126 367 125 930 -1 361 -4 467 -16 487 -11 17 -33 7 -62 -29z" />
 <path d="M2224 3069 c-11 -23 -15 -49 -12 -91 5 -70 24 -98 32 -47 3 19 8 52 11 74 l7 40 19 -24 c27 -33 36 -18 19 32 -20 56 -52 62 -76 16z" />
 <path d="M2876 2903 c-7 -19 40 -123 56 -123 11 0 3 47 -19 103 -16 40 -27 46 -37 20z" />
 <path d="M2284 2869 c-14 -24 -27 -320 -17 -404 16 -126 45 -178 182 -318 64 -64 124 -117 133 -117 26 0 31 37 18 146 -18 157 -78 317 -208 552 -31 57 -63 115 -70 128 -14 26 -27 30 -38 13z" />
 <path d="M2225 2753 c-12 -28 -18 -241 -7 -223 10 16 32 162 32 212 0 31 -14 37 -25 11z" />
 <path d="M2960 2729 c0 -19 40 -81 57 -86 19 -7 4 32 -27 68 -20 23 -29 29 -30 18z" />
 <path d="M2217 2400 c-8 -18 -47 -432 -47 -501 0 -66 16 -70 29 -7 23 119 39 552 18 508z" />
 <path d="M1735 2270 c-11 -18 -8 -81 4 -93 19 -19 33 7 29 53 -3 43 -19 62 -33 40z" />
 <path d="M2540 1955 c0 -31 24 -90 40 -100 33 -20 27 48 -8 103 -19 29 -32 28 -32 -3z" />
 <path d="M2110 1733 c-12 -15 -47 -79 -78 -141 -53 -106 -57 -119 -57 -185 0 -40 12 -142 27 -227 15 -85 30 -201 34 -258 4 -56 10 -105 14 -107 18 -11 31 31 45 151 36 313 65 627 65 696 0 92 -16 114 -50 71z" />
</g>
<rect width="98%" height="12%" fill="#080" x="1%" y="82%" fill-opacity="0.9"/>
<text x="50%" y="93%" dominant-baseline="bottom" text-anchor="middle" class="title">ARBORIST</text>
</svg>
